<svg xmlns="http://www.w3.org/2000/svg" xmlns:xlink="http://www.w3.org/1999/xlink" width="1080" zoomAndPan="magnify" viewBox="0 0 810 809.999993" height="1080" preserveAspectRatio="xMidYMid meet" version="1.0"><defs><g/><clipPath id="449ea3f460"><path d="M 223.789062 213.128906 L 586.210938 213.128906 L 586.210938 575.550781 L 223.789062 575.550781 Z M 223.789062 213.128906 " clip-rule="nonzero"/></clipPath><clipPath id="54e996b512"><path d="M 405 213.128906 C 304.921875 213.128906 223.789062 294.261719 223.789062 394.339844 C 223.789062 494.417969 304.921875 575.550781 405 575.550781 C 505.078125 575.550781 586.210938 494.417969 586.210938 394.339844 C 586.210938 294.261719 505.078125 213.128906 405 213.128906 Z M 405 213.128906 " clip-rule="nonzero"/></clipPath><clipPath id="7da2bdc0bb"><path d="M 282 126 L 555 126 L 555 351 L 282 351 Z M 282 126 " clip-rule="nonzero"/></clipPath><clipPath id="6a05f79185"><path d="M 554.167969 300.257812 L 362.03125 388.667969 L 282.089844 214.925781 L 474.226562 126.519531 Z M 554.167969 300.257812 " clip-rule="nonzero"/></clipPath><clipPath id="e030984edf"><path d="M 772.308594 326.207031 L 271.527344 556.628906 L 56.464844 89.234375 L 557.246094 -141.1875 Z M 772.308594 326.207031 " clip-rule="nonzero"/></clipPath><clipPath id="5b3688a092"><path d="M 231 374 L 536 374 L 536 617 L 231 617 Z M 231 374 " clip-rule="nonzero"/></clipPath><clipPath id="8e549ff20b"><path d="M 535.273438 585.53125 L 347.84375 683.519531 L 231.785156 461.527344 L 419.21875 363.539062 Z M 535.273438 585.53125 " clip-rule="nonzero"/></clipPath><clipPath id="6406b864e9"><path d="M 635.761719 588.359375 L 147.246094 843.753906 L -91.125 387.800781 L 397.394531 132.40625 Z M 635.761719 588.359375 " clip-rule="nonzero"/></clipPath></defs><rect x="-81" width="972" fill="#ffffff" y="-80.999999" height="971.999992" fill-opacity="1"/><rect x="-81" width="972" fill="#fcf9f2" y="-80.999999" height="971.999992" fill-opacity="1"/><g clip-path="url(#449ea3f460)"><g clip-path="url(#54e996b512)"><path fill="#28800e" d="M 223.789062 213.128906 L 586.210938 213.128906 L 586.210938 575.550781 L 223.789062 575.550781 Z M 223.789062 213.128906 " fill-opacity="1" fill-rule="nonzero"/></g></g><g clip-path="url(#7da2bdc0bb)"><g clip-path="url(#6a05f79185)"><g clip-path="url(#e030984edf)"><path fill="#fcf9f2" d="M 720.140625 298.4375 C 703.167969 323.804688 668.9375 318.738281 646.625 303.769531 C 622.71875 287.699219 607.734375 263.03125 587.5 243.136719 C 569.871094 225.824219 548.441406 212.285156 522.78125 214.128906 C 498.464844 215.882812 478.71875 231.148438 461.519531 247.148438 C 445.621094 261.914062 427.75 284.105469 404.644531 286.535156 C 371.871094 290.007812 352.273438 255.070312 341.933594 229.5 C 331.578125 203.824219 322.320312 173.9375 292.097656 166.277344 C 261.878906 158.613281 242.691406 185.601562 223.277344 203.78125 C 199.828125 225.730469 164.363281 241.75 148.949219 202.714844 C 135.417969 168.425781 131.300781 128.386719 123.472656 92.414062 C 118.820312 71.078125 85.253906 76.488281 89.902344 97.898438 C 97.652344 133.460938 103.433594 170.191406 113.992188 205.019531 C 122.558594 233.242188 140.777344 258.515625 172.332031 261.257812 C 202.714844 263.902344 228.8125 245.753906 249.507812 225.636719 C 257.632812 217.742188 273.660156 194.714844 286.710938 200.132812 C 302.492188 206.6875 307.304688 235.210938 313.347656 249.242188 C 325.59375 277.640625 344.984375 304.8125 375.046875 315.953125 C 402.085938 325.976562 428.757812 318.273438 451.285156 301.804688 C 472.238281 286.472656 488.503906 261.617188 512.738281 251.214844 C 541.246094 238.957031 563.089844 265.523438 579.515625 285.113281 C 601.773438 311.675781 627.007812 338.929688 661.960938 347.597656 C 693.878906 355.527344 729.285156 345.972656 748.027344 317.953125 C 760.183594 299.78125 732.375 280.1875 720.140625 298.4375 Z M 720.140625 298.4375 " fill-opacity="1" fill-rule="nonzero"/></g></g></g><g clip-path="url(#5b3688a092)"><g clip-path="url(#8e549ff20b)"><g clip-path="url(#6406b864e9)"><path fill="#fcf9f2" d="M 582.261719 563.253906 C 566.59375 589.445312 532.148438 586.113281 509.109375 572.289062 C 484.421875 557.445312 468.210938 533.5625 447 514.714844 C 428.519531 498.316406 406.433594 485.875 380.902344 489.011719 C 356.703125 491.992188 337.75 508.230469 321.382812 525.078125 C 306.25 540.628906 289.519531 563.691406 266.566406 567.285156 C 234.011719 572.40625 212.675781 538.5 201.058594 513.484375 C 189.421875 488.363281 178.664062 458.984375 148.097656 452.855469 C 117.527344 446.730469 99.730469 474.648438 81.253906 493.789062 C 58.945312 516.890625 24.332031 534.675781 6.96875 496.46875 C -8.273438 462.910156 -14.410156 423.128906 -24.042969 387.59375 C -29.761719 366.519531 -63.015625 373.617188 -57.292969 394.769531 C -47.757812 429.894531 -40.132812 466.285156 -27.828125 500.535156 C -17.847656 528.289062 1.625 552.613281 33.273438 553.761719 C 63.753906 554.867188 88.898438 535.425781 108.554688 514.289062 C 116.269531 505.996094 131.117188 482.191406 144.421875 486.941406 C 160.515625 492.691406 166.761719 520.9375 173.507812 534.644531 C 187.167969 562.390625 207.90625 588.550781 238.492188 598.160156 C 266.003906 606.804688 292.25 597.765625 313.917969 580.183594 C 334.070312 563.8125 349.0625 538.164062 372.738281 526.554688 C 400.59375 512.878906 423.75 538.308594 441.144531 557.039062 C 464.714844 582.449219 491.289062 608.394531 526.636719 615.285156 C 558.910156 621.597656 593.789062 610.269531 611.097656 581.339844 C 622.324219 562.574219 593.558594 544.414062 582.261719 563.253906 Z M 582.261719 563.253906 " fill-opacity="1" fill-rule="nonzero"/></g></g></g><g fill="#fcf9f2" fill-opacity="1"><g transform="translate(240.954455, 363.952413)"><g><path d="M 32.609375 0 L 25.4375 0 L 22.625 -7.34375 L 9.65625 -7.34375 L 6.984375 0 L 0 0 L 12.65625 -32.46875 L 19.59375 -32.46875 Z M 11.65625 -12.828125 L 20.546875 -12.828125 L 16.046875 -24.890625 Z M 11.65625 -12.828125 "/></g></g></g><g fill="#fcf9f2" fill-opacity="1"><g transform="translate(276.773344, 363.952413)"><g><path d="M 25.078125 -31.421875 C 26.429688 -30.847656 27.5625 -29.832031 28.46875 -28.375 C 29.382812 -26.925781 29.84375 -25.253906 29.84375 -23.359375 C 29.84375 -20.929688 29.09375 -18.894531 27.59375 -17.25 C 26.09375 -15.601562 23.984375 -14.613281 21.265625 -14.28125 C 22.441406 -13.46875 23.335938 -12.796875 23.953125 -12.265625 C 24.578125 -11.734375 25.257812 -10.988281 26 -10.03125 C 26.738281 -9.082031 27.65625 -7.734375 28.75 -5.984375 L 32.46875 0 L 24.625 0 L 19.359375 -7.890625 C 18.179688 -9.640625 17.265625 -10.882812 16.609375 -11.625 C 15.960938 -12.363281 15.273438 -12.867188 14.546875 -13.140625 C 13.828125 -13.421875 12.800781 -13.5625 11.46875 -13.5625 L 9.84375 -13.5625 L 9.84375 0 L 3.3125 0 L 3.3125 -32.46875 L 17.5 -32.46875 C 19.039062 -32.46875 20.4375 -32.398438 21.6875 -32.265625 C 22.945312 -32.128906 24.078125 -31.847656 25.078125 -31.421875 Z M 20.453125 -19.09375 C 21.234375 -19.332031 21.863281 -19.785156 22.34375 -20.453125 C 22.832031 -21.117188 23.078125 -21.945312 23.078125 -22.9375 C 23.078125 -24.664062 22.335938 -25.863281 20.859375 -26.53125 C 20.460938 -26.707031 19.976562 -26.828125 19.40625 -26.890625 C 18.832031 -26.953125 17.847656 -26.984375 16.453125 -26.984375 L 9.84375 -26.984375 L 9.84375 -18.734375 L 15.59375 -18.734375 C 17.957031 -18.734375 19.578125 -18.851562 20.453125 -19.09375 Z M 20.453125 -19.09375 "/></g></g></g><g fill="#fcf9f2" fill-opacity="1"><g transform="translate(312.592234, 363.952413)"><g><path d="M 27.390625 -26.984375 L 9.84375 -26.984375 L 9.84375 -19.765625 L 26.15625 -19.765625 L 26.15625 -14.28125 L 9.84375 -14.28125 L 9.84375 -5.484375 L 27.984375 -5.484375 L 27.984375 0 L 3.3125 0 L 3.3125 -32.46875 L 27.390625 -32.46875 Z M 27.390625 -26.984375 "/></g></g></g><g fill="#fcf9f2" fill-opacity="1"><g transform="translate(345.917439, 363.952413)"><g><path d="M 22.984375 -10.796875 L 22.984375 -32.46875 L 29.0625 -32.46875 L 29.0625 0 L 22.484375 0 L 9.4375 -21.171875 L 9.4375 0 L 3.359375 0 L 3.359375 -32.46875 L 9.703125 -32.46875 Z M 22.984375 -10.796875 "/></g></g></g><g fill="#fcf9f2" fill-opacity="1"><g transform="translate(381.736323, 363.952413)"><g><path d="M 32.609375 0 L 25.4375 0 L 22.625 -7.34375 L 9.65625 -7.34375 L 6.984375 0 L 0 0 L 12.65625 -32.46875 L 19.59375 -32.46875 Z M 11.65625 -12.828125 L 20.546875 -12.828125 L 16.046875 -24.890625 Z M 11.65625 -12.828125 "/></g></g></g><g fill="#fcf9f2" fill-opacity="1"><g transform="translate(240.954455, 404.452411)"><g><path d="M 32.609375 0 L 25.4375 0 L 22.625 -7.34375 L 9.65625 -7.34375 L 6.984375 0 L 0 0 L 12.65625 -32.46875 L 19.59375 -32.46875 Z M 11.65625 -12.828125 L 20.546875 -12.828125 L 16.046875 -24.890625 Z M 11.65625 -12.828125 "/></g></g></g><g fill="#fcf9f2" fill-opacity="1"><g transform="translate(276.773344, 404.452411)"><g><path d="M 17.28125 -33.015625 C 20.601562 -33.015625 23.410156 -32.203125 25.703125 -30.578125 C 28.003906 -28.960938 29.535156 -26.597656 30.296875 -23.484375 L 23.8125 -21.953125 C 23.414062 -23.640625 22.613281 -24.96875 21.40625 -25.9375 C 20.195312 -26.90625 18.710938 -27.390625 16.953125 -27.390625 C 14.421875 -27.390625 12.441406 -26.488281 11.015625 -24.6875 C 9.597656 -22.882812 8.890625 -20.140625 8.890625 -16.453125 C 8.890625 -13.066406 9.46875 -10.320312 10.625 -8.21875 C 11.789062 -6.125 13.875 -5.078125 16.875 -5.078125 C 18.769531 -5.078125 20.304688 -5.679688 21.484375 -6.890625 C 22.671875 -8.097656 23.519531 -9.773438 24.03125 -11.921875 L 30.375 -9.9375 C 29.5 -6.394531 27.894531 -3.757812 25.5625 -2.03125 C 23.238281 -0.3125 20.351562 0.546875 16.90625 0.546875 C 13.976562 0.546875 11.394531 -0.128906 9.15625 -1.484375 C 6.914062 -2.847656 5.179688 -4.769531 3.953125 -7.25 C 2.734375 -9.726562 2.125 -12.632812 2.125 -15.96875 C 2.125 -18.925781 2.640625 -21.695312 3.671875 -24.28125 C 4.703125 -26.863281 6.347656 -28.960938 8.609375 -30.578125 C 10.878906 -32.203125 13.769531 -33.015625 17.28125 -33.015625 Z M 17.28125 -33.015625 "/></g></g></g><g fill="#fcf9f2" fill-opacity="1"><g transform="translate(312.592234, 404.452411)"><g><path d="M 17.28125 -33.015625 C 20.601562 -33.015625 23.410156 -32.203125 25.703125 -30.578125 C 28.003906 -28.960938 29.535156 -26.597656 30.296875 -23.484375 L 23.8125 -21.953125 C 23.414062 -23.640625 22.613281 -24.96875 21.40625 -25.9375 C 20.195312 -26.90625 18.710938 -27.390625 16.953125 -27.390625 C 14.421875 -27.390625 12.441406 -26.488281 11.015625 -24.6875 C 9.597656 -22.882812 8.890625 -20.140625 8.890625 -16.453125 C 8.890625 -13.066406 9.46875 -10.320312 10.625 -8.21875 C 11.789062 -6.125 13.875 -5.078125 16.875 -5.078125 C 18.769531 -5.078125 20.304688 -5.679688 21.484375 -6.890625 C 22.671875 -8.097656 23.519531 -9.773438 24.03125 -11.921875 L 30.375 -9.9375 C 29.5 -6.394531 27.894531 -3.757812 25.5625 -2.03125 C 23.238281 -0.3125 20.351562 0.546875 16.90625 0.546875 C 13.976562 0.546875 11.394531 -0.128906 9.15625 -1.484375 C 6.914062 -2.847656 5.179688 -4.769531 3.953125 -7.25 C 2.734375 -9.726562 2.125 -12.632812 2.125 -15.96875 C 2.125 -18.925781 2.640625 -21.695312 3.671875 -24.28125 C 4.703125 -26.863281 6.347656 -28.960938 8.609375 -30.578125 C 10.878906 -32.203125 13.769531 -33.015625 17.28125 -33.015625 Z M 17.28125 -33.015625 "/></g></g></g><g fill="#fcf9f2" fill-opacity="1"><g transform="translate(348.41113, 404.452411)"><g><path d="M 27.390625 -26.984375 L 9.84375 -26.984375 L 9.84375 -19.765625 L 26.15625 -19.765625 L 26.15625 -14.28125 L 9.84375 -14.28125 L 9.84375 -5.484375 L 27.984375 -5.484375 L 27.984375 0 L 3.3125 0 L 3.3125 -32.46875 L 27.390625 -32.46875 Z M 27.390625 -26.984375 "/></g></g></g><g fill="#fcf9f2" fill-opacity="1"><g transform="translate(381.736323, 404.452411)"><g><path d="M 14.640625 -33.015625 C 18.242188 -33.015625 21.1875 -32.210938 23.46875 -30.609375 C 25.75 -29.003906 26.945312 -26.523438 27.0625 -23.171875 L 20.5 -22.90625 C 20.28125 -24.414062 19.722656 -25.578125 18.828125 -26.390625 C 17.941406 -27.203125 16.519531 -27.609375 14.5625 -27.609375 C 13.195312 -27.609375 11.9375 -27.363281 10.78125 -26.875 C 9.632812 -26.394531 9.0625 -25.566406 9.0625 -24.390625 C 9.0625 -23.398438 9.578125 -22.609375 10.609375 -22.015625 C 11.640625 -21.421875 13.46875 -20.820312 16.09375 -20.21875 C 18.539062 -19.644531 20.554688 -19.03125 22.140625 -18.375 C 23.734375 -17.726562 25.101562 -16.6875 26.25 -15.25 C 27.40625 -13.820312 27.984375 -11.882812 27.984375 -9.4375 C 27.984375 -8.195312 27.691406 -6.878906 27.109375 -5.484375 C 26.535156 -4.097656 25.597656 -2.90625 24.296875 -1.90625 C 23.335938 -1.113281 22.0625 -0.503906 20.46875 -0.078125 C 18.882812 0.335938 17.050781 0.546875 14.96875 0.546875 C 10.914062 0.546875 7.800781 -0.363281 5.625 -2.1875 C 3.445312 -4.019531 2.113281 -6.8125 1.625 -10.5625 L 7.984375 -11.15625 C 8.671875 -7.007812 11.023438 -4.9375 15.046875 -4.9375 C 17.171875 -4.9375 18.769531 -5.382812 19.84375 -6.28125 C 20.914062 -7.175781 21.453125 -8.226562 21.453125 -9.4375 C 21.453125 -10.3125 21.1875 -11.003906 20.65625 -11.515625 C 20.125 -12.023438 19.289062 -12.46875 18.15625 -12.84375 C 17.019531 -13.226562 15.242188 -13.707031 12.828125 -14.28125 C 9.804688 -14.945312 7.378906 -16.066406 5.546875 -17.640625 C 3.722656 -19.210938 2.8125 -21.3125 2.8125 -23.9375 C 2.8125 -25.363281 3.171875 -26.765625 3.890625 -28.140625 C 4.617188 -29.515625 5.867188 -30.671875 7.640625 -31.609375 C 9.410156 -32.546875 11.742188 -33.015625 14.640625 -33.015625 Z M 14.640625 -33.015625 "/></g></g></g><g fill="#fcf9f2" fill-opacity="1"><g transform="translate(415.061517, 404.452411)"><g><path d="M 14.640625 -33.015625 C 18.242188 -33.015625 21.1875 -32.210938 23.46875 -30.609375 C 25.75 -29.003906 26.945312 -26.523438 27.0625 -23.171875 L 20.5 -22.90625 C 20.28125 -24.414062 19.722656 -25.578125 18.828125 -26.390625 C 17.941406 -27.203125 16.519531 -27.609375 14.5625 -27.609375 C 13.195312 -27.609375 11.9375 -27.363281 10.78125 -26.875 C 9.632812 -26.394531 9.0625 -25.566406 9.0625 -24.390625 C 9.0625 -23.398438 9.578125 -22.609375 10.609375 -22.015625 C 11.640625 -21.421875 13.46875 -20.820312 16.09375 -20.21875 C 18.539062 -19.644531 20.554688 -19.03125 22.140625 -18.375 C 23.734375 -17.726562 25.101562 -16.6875 26.25 -15.25 C 27.40625 -13.820312 27.984375 -11.882812 27.984375 -9.4375 C 27.984375 -8.195312 27.691406 -6.878906 27.109375 -5.484375 C 26.535156 -4.097656 25.597656 -2.90625 24.296875 -1.90625 C 23.335938 -1.113281 22.0625 -0.503906 20.46875 -0.078125 C 18.882812 0.335938 17.050781 0.546875 14.96875 0.546875 C 10.914062 0.546875 7.800781 -0.363281 5.625 -2.1875 C 3.445312 -4.019531 2.113281 -6.8125 1.625 -10.5625 L 7.984375 -11.15625 C 8.671875 -7.007812 11.023438 -4.9375 15.046875 -4.9375 C 17.171875 -4.9375 18.769531 -5.382812 19.84375 -6.28125 C 20.914062 -7.175781 21.453125 -8.226562 21.453125 -9.4375 C 21.453125 -10.3125 21.1875 -11.003906 20.65625 -11.515625 C 20.125 -12.023438 19.289062 -12.46875 18.15625 -12.84375 C 17.019531 -13.226562 15.242188 -13.707031 12.828125 -14.28125 C 9.804688 -14.945312 7.378906 -16.066406 5.546875 -17.640625 C 3.722656 -19.210938 2.8125 -21.3125 2.8125 -23.9375 C 2.8125 -25.363281 3.171875 -26.765625 3.890625 -28.140625 C 4.617188 -29.515625 5.867188 -30.671875 7.640625 -31.609375 C 9.410156 -32.546875 11.742188 -33.015625 14.640625 -33.015625 Z M 14.640625 -33.015625 "/></g></g></g><g fill="#fcf9f2" fill-opacity="1"><g transform="translate(377.455737, 456.480045)"><g><path d="M 42.03125 -25.6875 L 42.03125 -18.8125 L 36.046875 -18.8125 L 36.046875 -0.640625 C 31.085938 0.378906 26.109375 0.890625 21.109375 0.890625 C 9.285156 0.890625 3.375 -3.132812 3.375 -11.1875 C 3.375 -14.113281 4.304688 -16.570312 6.171875 -18.5625 C 8.035156 -20.550781 10.578125 -21.84375 13.796875 -22.4375 C 11.335938 -23.070312 9.363281 -24.269531 7.875 -26.03125 C 6.394531 -27.789062 5.65625 -29.859375 5.65625 -32.234375 C 5.65625 -36.171875 7.117188 -39.242188 10.046875 -41.453125 C 12.972656 -43.660156 16.976562 -44.765625 22.0625 -44.765625 C 24.726562 -44.765625 27.035156 -44.550781 28.984375 -44.125 L 28.984375 -37.640625 C 26.742188 -38.015625 24.457031 -38.203125 22.125 -38.203125 C 19.789062 -38.203125 18.007812 -37.671875 16.78125 -36.609375 C 15.550781 -35.554688 14.9375 -34.035156 14.9375 -32.046875 C 14.9375 -28.054688 17.035156 -25.957031 21.234375 -25.75 C 21.992188 -25.707031 23.242188 -25.6875 24.984375 -25.6875 L 27.28125 -25.6875 L 27.28125 -31.59375 L 36.046875 -31.59375 L 36.046875 -25.6875 Z M 12.71875 -12.328125 C 12.71875 -9.910156 13.414062 -8.191406 14.8125 -7.171875 C 16.207031 -6.160156 18.367188 -5.65625 21.296875 -5.65625 C 23.546875 -5.65625 25.539062 -5.828125 27.28125 -6.171875 L 27.28125 -18.8125 L 24.40625 -18.8125 C 22.882812 -18.8125 21.703125 -18.769531 20.859375 -18.6875 C 15.429688 -18.3125 12.71875 -16.191406 12.71875 -12.328125 Z M 12.71875 -12.328125 "/></g></g></g><g fill="#fcf9f2" fill-opacity="1"><g transform="translate(420.241211, 456.480045)"><g/></g></g><g fill="#fcf9f2" fill-opacity="1"><g transform="translate(432.574611, 456.480045)"><g><path d="M 24.484375 -44.765625 C 30.203125 -44.765625 34.671875 -43.375 37.890625 -40.59375 C 41.109375 -37.820312 42.953125 -34.164062 43.421875 -29.625 L 43.484375 -28.984375 L 34.71875 -28.984375 L 34.59375 -29.625 C 33.445312 -35.34375 30.03125 -38.203125 24.34375 -38.203125 C 20.789062 -38.203125 17.929688 -36.769531 15.765625 -33.90625 C 13.609375 -31.050781 12.53125 -27.144531 12.53125 -22.1875 C 12.53125 -16.882812 13.609375 -12.800781 15.765625 -9.9375 C 17.929688 -7.082031 20.75 -5.65625 24.21875 -5.65625 C 27.019531 -5.65625 29.265625 -6.4375 30.953125 -8 C 32.648438 -9.570312 33.796875 -11.757812 34.390625 -14.5625 L 34.515625 -15.1875 L 43.234375 -15.1875 L 43.171875 -14.5625 C 42.703125 -9.8125 40.75 -6.046875 37.3125 -3.265625 C 33.882812 -0.492188 29.394531 0.890625 23.84375 0.890625 C 17.65625 0.890625 12.675781 -1.140625 8.90625 -5.203125 C 5.132812 -9.273438 3.25 -14.769531 3.25 -21.6875 C 3.25 -28.71875 5.238281 -34.320312 9.21875 -38.5 C 13.195312 -42.675781 18.285156 -44.765625 24.484375 -44.765625 Z M 24.484375 -44.765625 "/></g></g></g><g fill="#fcf9f2" fill-opacity="1"><g transform="translate(478.220925, 456.480045)"><g><path d="M 6.359375 -29.78125 C 9.453125 -33.070312 13.753906 -34.71875 19.265625 -34.71875 C 24.773438 -34.71875 29.078125 -33.070312 32.171875 -29.78125 C 35.265625 -26.5 36.8125 -22.207031 36.8125 -16.90625 C 36.8125 -11.65625 35.265625 -7.375 32.171875 -4.0625 C 29.078125 -0.757812 24.773438 0.890625 19.265625 0.890625 C 13.753906 0.890625 9.453125 -0.757812 6.359375 -4.0625 C 3.265625 -7.375 1.71875 -11.65625 1.71875 -16.90625 C 1.71875 -22.207031 3.265625 -26.5 6.359375 -29.78125 Z M 13.0625 -8.359375 C 14.570312 -6.304688 16.640625 -5.28125 19.265625 -5.28125 C 21.890625 -5.28125 23.953125 -6.304688 25.453125 -8.359375 C 26.960938 -10.410156 27.71875 -13.257812 27.71875 -16.90625 C 27.71875 -20.550781 26.960938 -23.398438 25.453125 -25.453125 C 23.953125 -27.515625 21.890625 -28.546875 19.265625 -28.546875 C 16.640625 -28.546875 14.570312 -27.515625 13.0625 -25.453125 C 11.5625 -23.398438 10.8125 -20.550781 10.8125 -16.90625 C 10.8125 -13.257812 11.5625 -10.410156 13.0625 -8.359375 Z M 13.0625 -8.359375 "/></g></g></g><g fill="#fcf9f2" fill-opacity="1"><g transform="translate(516.74692, 456.480045)"><g><path d="M 3.9375 -8.296875 C 4.914062 -9.296875 6.1875 -9.796875 7.75 -9.796875 C 9.320312 -9.796875 10.601562 -9.296875 11.59375 -8.296875 C 12.59375 -7.296875 13.09375 -6.007812 13.09375 -4.4375 C 13.09375 -2.875 12.59375 -1.59375 11.59375 -0.59375 C 10.601562 0.394531 9.320312 0.890625 7.75 0.890625 C 6.1875 0.890625 4.914062 0.394531 3.9375 -0.59375 C 2.96875 -1.59375 2.484375 -2.875 2.484375 -4.4375 C 2.484375 -6.007812 2.96875 -7.296875 3.9375 -8.296875 Z M 3.9375 -8.296875 "/></g></g></g><g fill="#fcf9f2" fill-opacity="1"><g transform="translate(296.599294, 439.00423)"><g><path d="M 3.40625 -7.640625 C 4.257812 -7.640625 4.929688 -7.441406 5.421875 -7.046875 C 5.921875 -6.648438 6.1875 -6.097656 6.21875 -5.390625 L 5.265625 -5.328125 C 5.210938 -5.816406 5.039062 -6.175781 4.75 -6.40625 C 4.457031 -6.632812 4.019531 -6.75 3.4375 -6.75 C 2.894531 -6.75 2.472656 -6.648438 2.171875 -6.453125 C 1.867188 -6.253906 1.71875 -5.984375 1.71875 -5.640625 C 1.71875 -5.410156 1.785156 -5.21875 1.921875 -5.0625 C 2.054688 -4.90625 2.242188 -4.789062 2.484375 -4.71875 C 2.546875 -4.707031 2.753906 -4.644531 3.109375 -4.53125 C 3.460938 -4.425781 3.914062 -4.316406 4.46875 -4.203125 C 5.125 -4.054688 5.617188 -3.789062 5.953125 -3.40625 C 6.285156 -3.03125 6.453125 -2.601562 6.453125 -2.125 C 6.453125 -1.71875 6.335938 -1.34375 6.109375 -1 C 5.890625 -0.65625 5.570312 -0.378906 5.15625 -0.171875 C 4.738281 0.0234375 4.242188 0.125 3.671875 0.125 C 3.003906 0.125 2.429688 0.0195312 1.953125 -0.1875 C 1.484375 -0.394531 1.125 -0.691406 0.875 -1.078125 C 0.625 -1.460938 0.488281 -1.910156 0.46875 -2.421875 L 1.421875 -2.5 C 1.460938 -1.90625 1.695312 -1.46875 2.125 -1.1875 C 2.550781 -0.90625 3.054688 -0.765625 3.640625 -0.765625 C 4.210938 -0.765625 4.664062 -0.882812 5 -1.125 C 5.332031 -1.363281 5.5 -1.6875 5.5 -2.09375 C 5.5 -2.644531 5.054688 -3.03125 4.171875 -3.25 L 3.578125 -3.390625 C 3.210938 -3.472656 2.796875 -3.585938 2.328125 -3.734375 C 1.835938 -3.867188 1.457031 -4.101562 1.1875 -4.4375 C 0.914062 -4.769531 0.78125 -5.148438 0.78125 -5.578125 C 0.78125 -5.960938 0.882812 -6.3125 1.09375 -6.625 C 1.300781 -6.945312 1.601562 -7.195312 2 -7.375 C 2.394531 -7.550781 2.863281 -7.640625 3.40625 -7.640625 Z M 3.40625 -7.640625 "/></g></g></g><g fill="#fcf9f2" fill-opacity="1"><g transform="translate(304.316769, 439.00423)"><g><path d="M 5.78125 -7.03125 C 6.03125 -6.820312 6.21875 -6.570312 6.34375 -6.28125 C 6.476562 -5.988281 6.546875 -5.691406 6.546875 -5.390625 C 6.546875 -4.554688 6.25 -3.925781 5.65625 -3.5 C 5.25 -3.207031 4.632812 -3.0625 3.8125 -3.0625 L 1.8125 -3.0625 L 1.8125 0 L 0.8125 0 L 0.8125 -7.515625 L 3.796875 -7.515625 C 4.285156 -7.515625 4.675781 -7.476562 4.96875 -7.40625 C 5.269531 -7.34375 5.539062 -7.21875 5.78125 -7.03125 Z M 5.515625 -5.375 C 5.515625 -5.53125 5.476562 -5.695312 5.40625 -5.875 C 5.332031 -6.050781 5.234375 -6.195312 5.109375 -6.3125 C 4.960938 -6.4375 4.796875 -6.519531 4.609375 -6.5625 C 4.429688 -6.613281 4.191406 -6.640625 3.890625 -6.640625 L 1.8125 -6.640625 L 1.8125 -3.953125 L 3.796875 -3.953125 C 4.378906 -3.953125 4.8125 -4.066406 5.09375 -4.296875 C 5.375 -4.523438 5.515625 -4.882812 5.515625 -5.375 Z M 5.515625 -5.375 "/></g></g></g><g fill="#fcf9f2" fill-opacity="1"><g transform="translate(312.034243, 439.00423)"><g><path d="M 3.953125 -7.640625 C 4.703125 -7.640625 5.359375 -7.476562 5.921875 -7.15625 C 6.484375 -6.832031 6.914062 -6.375 7.21875 -5.78125 C 7.53125 -5.195312 7.6875 -4.519531 7.6875 -3.75 C 7.6875 -2.976562 7.53125 -2.296875 7.21875 -1.703125 C 6.90625 -1.117188 6.476562 -0.664062 5.9375 -0.34375 C 5.40625 -0.03125 4.804688 0.125 4.140625 0.125 C 3.410156 0.125 2.769531 -0.0390625 2.21875 -0.375 C 1.664062 -0.707031 1.238281 -1.160156 0.9375 -1.734375 C 0.644531 -2.316406 0.5 -2.960938 0.5 -3.671875 C 0.5 -4.460938 0.644531 -5.160156 0.9375 -5.765625 C 1.238281 -6.367188 1.648438 -6.832031 2.171875 -7.15625 C 2.703125 -7.476562 3.296875 -7.640625 3.953125 -7.640625 Z M 1.515625 -3.640625 C 1.515625 -3.054688 1.625 -2.546875 1.84375 -2.109375 C 2.0625 -1.671875 2.363281 -1.328125 2.75 -1.078125 C 3.144531 -0.835938 3.585938 -0.71875 4.078125 -0.71875 C 4.585938 -0.71875 5.035156 -0.835938 5.421875 -1.078125 C 5.816406 -1.328125 6.117188 -1.675781 6.328125 -2.125 C 6.546875 -2.582031 6.65625 -3.125 6.65625 -3.75 C 6.65625 -4.363281 6.546875 -4.898438 6.328125 -5.359375 C 6.117188 -5.828125 5.820312 -6.179688 5.4375 -6.421875 C 5.050781 -6.671875 4.613281 -6.796875 4.125 -6.796875 C 3.300781 -6.796875 2.660156 -6.519531 2.203125 -5.96875 C 1.742188 -5.414062 1.515625 -4.640625 1.515625 -3.640625 Z M 1.515625 -3.640625 "/></g></g></g><g fill="#fcf9f2" fill-opacity="1"><g transform="translate(320.917207, 439.00423)"><g><path d="M 6.109375 -7.0625 C 6.367188 -6.863281 6.554688 -6.617188 6.671875 -6.328125 C 6.796875 -6.046875 6.859375 -5.753906 6.859375 -5.453125 C 6.859375 -4.910156 6.679688 -4.460938 6.328125 -4.109375 C 5.984375 -3.753906 5.453125 -3.523438 4.734375 -3.421875 C 5.003906 -3.296875 5.25 -3.125 5.46875 -2.90625 C 5.6875 -2.695312 5.914062 -2.40625 6.15625 -2.03125 L 7.46875 0 L 6.21875 0 L 5.25 -1.515625 C 4.914062 -2.035156 4.644531 -2.414062 4.4375 -2.65625 C 4.238281 -2.90625 4.035156 -3.078125 3.828125 -3.171875 C 3.617188 -3.273438 3.351562 -3.328125 3.03125 -3.328125 L 1.84375 -3.328125 L 1.84375 0 L 0.84375 0 L 0.84375 -7.515625 L 4.296875 -7.515625 C 4.734375 -7.515625 5.085938 -7.476562 5.359375 -7.40625 C 5.640625 -7.34375 5.890625 -7.226562 6.109375 -7.0625 Z M 5.390625 -4.53125 C 5.546875 -4.65625 5.65625 -4.796875 5.71875 -4.953125 C 5.789062 -5.117188 5.828125 -5.285156 5.828125 -5.453125 C 5.828125 -5.898438 5.664062 -6.21875 5.34375 -6.40625 C 5.03125 -6.59375 4.664062 -6.6875 4.25 -6.6875 L 1.84375 -6.6875 L 1.84375 -4.203125 L 4.078125 -4.203125 C 4.429688 -4.203125 4.703125 -4.226562 4.890625 -4.28125 C 5.078125 -4.34375 5.242188 -4.425781 5.390625 -4.53125 Z M 5.390625 -4.53125 "/></g></g></g><g fill="#fcf9f2" fill-opacity="1"><g transform="translate(329.212173, 439.00423)"><g><path d="M 6.1875 -6.640625 L 3.703125 -6.640625 L 3.703125 0 L 2.703125 0 L 2.703125 -6.640625 L 0.234375 -6.640625 L 0.234375 -7.515625 L 6.1875 -7.515625 Z M 6.1875 -6.640625 "/></g></g></g><g fill="#fcf9f2" fill-opacity="1"><g transform="translate(336.34165, 439.00423)"><g><path d="M 3.40625 -7.640625 C 4.257812 -7.640625 4.929688 -7.441406 5.421875 -7.046875 C 5.921875 -6.648438 6.1875 -6.097656 6.21875 -5.390625 L 5.265625 -5.328125 C 5.210938 -5.816406 5.039062 -6.175781 4.75 -6.40625 C 4.457031 -6.632812 4.019531 -6.75 3.4375 -6.75 C 2.894531 -6.75 2.472656 -6.648438 2.171875 -6.453125 C 1.867188 -6.253906 1.71875 -5.984375 1.71875 -5.640625 C 1.71875 -5.410156 1.785156 -5.21875 1.921875 -5.0625 C 2.054688 -4.90625 2.242188 -4.789062 2.484375 -4.71875 C 2.546875 -4.707031 2.753906 -4.644531 3.109375 -4.53125 C 3.460938 -4.425781 3.914062 -4.316406 4.46875 -4.203125 C 5.125 -4.054688 5.617188 -3.789062 5.953125 -3.40625 C 6.285156 -3.03125 6.453125 -2.601562 6.453125 -2.125 C 6.453125 -1.71875 6.335938 -1.34375 6.109375 -1 C 5.890625 -0.65625 5.570312 -0.378906 5.15625 -0.171875 C 4.738281 0.0234375 4.242188 0.125 3.671875 0.125 C 3.003906 0.125 2.429688 0.0195312 1.953125 -0.1875 C 1.484375 -0.394531 1.125 -0.691406 0.875 -1.078125 C 0.625 -1.460938 0.488281 -1.910156 0.46875 -2.421875 L 1.421875 -2.5 C 1.460938 -1.90625 1.695312 -1.46875 2.125 -1.1875 C 2.550781 -0.90625 3.054688 -0.765625 3.640625 -0.765625 C 4.210938 -0.765625 4.664062 -0.882812 5 -1.125 C 5.332031 -1.363281 5.5 -1.6875 5.5 -2.09375 C 5.5 -2.644531 5.054688 -3.03125 4.171875 -3.25 L 3.578125 -3.390625 C 3.210938 -3.472656 2.796875 -3.585938 2.328125 -3.734375 C 1.835938 -3.867188 1.457031 -4.101562 1.1875 -4.4375 C 0.914062 -4.769531 0.78125 -5.148438 0.78125 -5.578125 C 0.78125 -5.960938 0.882812 -6.3125 1.09375 -6.625 C 1.300781 -6.945312 1.601562 -7.195312 2 -7.375 C 2.394531 -7.550781 2.863281 -7.640625 3.40625 -7.640625 Z M 3.40625 -7.640625 "/></g></g></g><g fill="#fcf9f2" fill-opacity="1"><g transform="translate(344.059125, 439.00423)"><g><path d="M 4.078125 -7.640625 C 4.847656 -7.640625 5.488281 -7.441406 6 -7.046875 C 6.507812 -6.660156 6.863281 -6.128906 7.0625 -5.453125 L 6.0625 -5.21875 C 5.90625 -5.71875 5.664062 -6.101562 5.34375 -6.375 C 5.019531 -6.65625 4.59375 -6.796875 4.0625 -6.796875 C 3.28125 -6.796875 2.664062 -6.535156 2.21875 -6.015625 C 1.78125 -5.492188 1.5625 -4.757812 1.5625 -3.8125 C 1.5625 -2.820312 1.773438 -2.054688 2.203125 -1.515625 C 2.640625 -0.984375 3.242188 -0.71875 4.015625 -0.71875 C 4.554688 -0.71875 5.019531 -0.878906 5.40625 -1.203125 C 5.789062 -1.535156 6.050781 -2.015625 6.1875 -2.640625 L 7.1875 -2.390625 C 6.96875 -1.597656 6.585938 -0.976562 6.046875 -0.53125 C 5.515625 -0.09375 4.847656 0.125 4.046875 0.125 C 3.492188 0.125 3.019531 0.0507812 2.625 -0.09375 C 2.226562 -0.238281 1.894531 -0.457031 1.625 -0.75 C 1.25 -1.144531 0.972656 -1.609375 0.796875 -2.140625 C 0.617188 -2.671875 0.53125 -3.226562 0.53125 -3.8125 C 0.53125 -4.59375 0.675781 -5.269531 0.96875 -5.84375 C 1.269531 -6.414062 1.6875 -6.859375 2.21875 -7.171875 C 2.757812 -7.484375 3.378906 -7.640625 4.078125 -7.640625 Z M 4.078125 -7.640625 "/></g></g></g><g fill="#fcf9f2" fill-opacity="1"><g transform="translate(352.354094, 439.00423)"><g><path d="M 1.78125 -0.875 L 5.484375 -0.875 L 5.484375 0 L 0.78125 0 L 0.78125 -7.515625 L 1.78125 -7.515625 Z M 1.78125 -0.875 "/></g></g></g><g fill="#fcf9f2" fill-opacity="1"><g transform="translate(358.906065, 439.00423)"><g><path d="M 1.828125 -3.078125 C 1.828125 -2.429688 1.894531 -1.96875 2.03125 -1.6875 C 2.164062 -1.40625 2.375 -1.179688 2.65625 -1.015625 C 2.9375 -0.847656 3.296875 -0.765625 3.734375 -0.765625 C 4.347656 -0.765625 4.800781 -0.882812 5.09375 -1.125 C 5.382812 -1.363281 5.566406 -1.640625 5.640625 -1.953125 C 5.710938 -2.265625 5.75 -2.632812 5.75 -3.0625 L 5.75 -7.515625 L 6.734375 -7.515625 L 6.734375 -3.09375 C 6.734375 -2.707031 6.710938 -2.335938 6.671875 -1.984375 C 6.628906 -1.628906 6.5 -1.296875 6.28125 -0.984375 C 6.039062 -0.640625 5.722656 -0.367188 5.328125 -0.171875 C 4.941406 0.0234375 4.429688 0.125 3.796875 0.125 C 3.171875 0.125 2.664062 0.0351562 2.28125 -0.140625 C 1.90625 -0.328125 1.59375 -0.582031 1.34375 -0.90625 C 1.125 -1.1875 0.984375 -1.515625 0.921875 -1.890625 C 0.859375 -2.265625 0.828125 -2.660156 0.828125 -3.078125 L 0.828125 -7.515625 L 1.828125 -7.515625 Z M 1.828125 -3.078125 "/></g></g></g><g fill="#fcf9f2" fill-opacity="1"><g transform="translate(367.201029, 439.00423)"><g><path d="M 5.359375 -7.0625 C 5.640625 -6.851562 5.832031 -6.617188 5.9375 -6.359375 C 6.039062 -6.097656 6.09375 -5.863281 6.09375 -5.65625 C 6.09375 -4.90625 5.742188 -4.351562 5.046875 -4 C 5.523438 -3.851562 5.878906 -3.617188 6.109375 -3.296875 C 6.335938 -2.972656 6.453125 -2.585938 6.453125 -2.140625 C 6.453125 -1.796875 6.363281 -1.445312 6.1875 -1.09375 C 6.007812 -0.738281 5.703125 -0.460938 5.265625 -0.265625 C 4.898438 -0.0859375 4.390625 0 3.734375 0 L 0.78125 0 L 0.78125 -7.515625 L 3.671875 -7.515625 C 4.085938 -7.515625 4.421875 -7.476562 4.671875 -7.40625 C 4.921875 -7.332031 5.148438 -7.21875 5.359375 -7.0625 Z M 5.109375 -5.484375 C 5.109375 -5.929688 4.960938 -6.234375 4.671875 -6.390625 C 4.378906 -6.554688 3.945312 -6.640625 3.375 -6.640625 L 1.78125 -6.640625 L 1.78125 -4.359375 L 3.46875 -4.359375 C 4.03125 -4.359375 4.441406 -4.445312 4.703125 -4.625 C 4.972656 -4.800781 5.109375 -5.085938 5.109375 -5.484375 Z M 4.75 -1.0625 C 4.988281 -1.175781 5.160156 -1.332031 5.265625 -1.53125 C 5.367188 -1.738281 5.421875 -1.953125 5.421875 -2.171875 C 5.421875 -2.460938 5.347656 -2.707031 5.203125 -2.90625 C 5.054688 -3.113281 4.84375 -3.265625 4.5625 -3.359375 C 4.34375 -3.429688 4.019531 -3.46875 3.59375 -3.46875 L 1.78125 -3.46875 L 1.78125 -0.875 L 3.78125 -0.875 C 4.007812 -0.875 4.195312 -0.890625 4.34375 -0.921875 C 4.488281 -0.953125 4.625 -1 4.75 -1.0625 Z M 4.75 -1.0625 "/></g></g></g></svg>